<svg width="512" height="512" viewBox="0 0 512 512" fill="none" xmlns="http://www.w3.org/2000/svg">
<path d="M373.499 163.809C362.829 152.16 346.241 136.437 339.184 171.939C336.784 184.01 331.177 193.315 326.372 200.807C321.193 174.595 305.611 147.464 290.929 129.171C285.435 122.327 265.941 95.12 262.196 49.604C261.637 42.811 253.568 39.621 248.521 44.203C200.289 87.987 173.815 148.205 172.832 215.998C172.832 215.998 152.748 199.069 141.837 167.575C138.899 159.094 127.529 157.476 122.596 164.975C121.649 166.415 120.771 167.857 119.979 169.257C82.766 235.057 64.865 314.962 81.414 389.302C109.084 513.799 292.118 548.605 389.017 470.356C483.822 393.8 453.686 251.311 373.499 163.809Z" fill="#FF4757"/>
<path d="M107.171 397.118C90.814 321.983 108.128 241.3 144.467 174.47C143.548 172.253 142.664 169.96 141.838 167.576C138.9 159.095 127.53 157.477 122.597 164.976C121.65 166.416 120.773 167.858 119.981 169.258C82.768 235.058 64.867 314.963 81.416 389.303C94.037 446.089 138.985 484.203 193.336 501.452C150.936 480.913 117.732 445.704 107.171 397.118Z" fill="#FF3749"/>
<path d="M198.716 214.75C200.725 153.223 222.979 98.053 262.809 55.671C262.535 53.337 262.332 51.25 262.201 49.666C261.63 42.815 253.856 39.379 248.831 43.921C202.246 86.039 173.852 145.648 172.833 215.996L181.552 222.767C185.846 226.102 191.664 225.957 195.765 222.902C198.212 220.828 198.563 217.698 198.716 214.75Z" fill="#FF3749"/>
<path d="M344.242 254.818C336.362 246.214 324.109 234.6 318.897 260.823C317.125 269.738 312.982 276.612 309.435 282.146C305.61 262.785 294.1 242.745 283.256 229.234C279.198 224.179 264.8 204.084 262.033 170.463C261.62 165.445 255.661 163.09 251.933 166.474C216.308 198.813 196.753 243.293 196.028 293.365C196.028 293.365 181.193 280.861 173.135 257.599C170.965 251.335 162.566 250.14 158.923 255.679C158.224 256.742 157.575 257.808 156.99 258.842C129.503 307.443 116.281 366.462 128.504 421.372C148.942 513.328 284.134 539.037 355.706 481.24C425.73 424.695 403.471 319.45 344.242 254.818Z" fill="#FF6348"/>
<path d="M153.994 428.585C143.172 374.909 154.381 317.314 178.146 269.354C176.335 265.808 174.619 261.888 173.133 257.6C170.963 251.336 162.564 250.14 158.921 255.679C158.222 256.742 157.573 257.808 156.988 258.843C129.502 307.444 116.281 366.463 128.502 421.372C138.008 464.14 172.339 492.568 213.543 504.939C184.268 490.258 161.218 464.464 153.994 428.585Z" fill="#FF5739"/>
<path d="M317.534 337.904C312.2 332.08 303.904 324.217 300.376 341.969C299.177 348.005 296.372 352.657 293.97 356.403C291.38 343.296 283.59 329.731 276.248 320.585C273.502 317.163 263.755 303.56 261.881 280.801C261.601 277.404 257.568 275.809 255.044 278.101C230.928 299.993 217.691 330.103 217.2 363.998C217.2 363.998 207.157 355.533 201.703 339.787C200.234 335.547 194.549 334.738 192.083 338.487C191.609 339.206 191.171 339.928 190.774 340.628C172.168 373.528 163.217 413.48 171.491 450.651C185.326 512.9 276.843 530.303 325.292 491.178C341.883 477.78 352.17 458.901 354.256 438.018C357.405 406.388 345.232 368.129 317.534 337.904Z" fill="#FF7F50"/>
<path d="M292.749 415.006C289.777 411.761 285.156 407.381 283.19 417.27C282.522 420.633 280.96 423.225 279.621 425.312C278.178 418.01 273.838 410.452 269.748 405.357C268.218 403.45 262.787 395.871 261.743 383.192C261.587 381.299 259.339 380.412 257.934 381.687C244.499 393.884 237.123 410.659 236.85 429.543C236.85 429.543 231.255 424.827 228.216 416.054C227.397 413.691 224.23 413.24 222.857 415.33C222.593 415.731 222.349 416.133 222.129 416.523C211.763 434.853 206.776 457.111 211.386 477.82C221.884 525.051 307.932 523.619 313.21 470.781C314.962 453.16 308.18 431.844 292.749 415.006Z" fill="#EAE9E8"/>
<path d="M231.364 487.194C226.754 468.669 231.741 448.758 242.107 432.362C242.327 432.013 242.572 431.654 242.835 431.295C244.209 429.426 247.376 429.829 248.194 431.942C251.233 439.79 256.828 444.009 256.828 444.009C257.053 430.129 262.081 417.529 271.316 407.423C269.251 404.563 262.933 397.667 261.742 383.194C261.586 381.301 259.338 380.414 257.933 381.689C244.498 393.886 237.122 410.661 236.849 429.545C236.849 429.545 231.254 424.829 228.215 416.057C227.397 413.694 224.229 413.243 222.856 415.333C222.592 415.734 222.348 416.136 222.128 416.526C211.762 434.855 206.775 457.114 211.385 477.823C215.651 497.018 233.177 508.554 252.553 511.338C242.101 506.205 234.068 498.077 231.364 487.194Z" fill="#F7E7A1"/>
<path d="M184.598 68.045C206.223 50.456 206.175 17.549 184.598 0C162.973 17.588 163.02 50.496 184.598 68.045Z" fill="#FF3749"/>
<path d="M443.793 209.213C465.418 191.624 465.37 158.717 443.793 141.168C433.909 149.206 422.216 191.664 443.793 209.213Z" fill="#FF3749"/>
<path d="M60.785 222.606C76.37 209.929 76.336 186.214 60.785 173.565C53.662 179.358 45.234 209.958 60.785 222.606Z" fill="#FF3749"/>
<path d="M330.709 117.086C346.294 104.409 346.26 80.694 330.709 68.045C315.124 80.721 315.159 104.438 330.709 117.086Z" fill="#FF3749"/>
<path d="M215.911 285.324C219.49 243.072 235.625 205.503 262.717 176.862C262.443 174.786 262.212 172.655 262.032 170.464C261.619 165.446 255.66 163.091 251.932 166.475C223.702 192.101 205.584 225.357 198.91 262.972L198.9 262.969C198.405 265.759 197.791 269.823 197.403 273.016C197.404 273.019 197.405 273.021 197.407 273.024C196.596 279.688 196.126 286.472 196.026 293.367C196.78 293.514 213.848 302.287 215.911 285.324Z" fill="#FF5739"/>
<path d="M196.43 459.481C189.075 424.756 195.339 387.726 209.891 355.641C207.072 351.688 203.987 346.378 201.704 339.786C200.234 335.546 194.55 334.737 192.083 338.486C191.61 339.205 191.17 339.927 190.774 340.627C172.168 373.527 163.217 413.479 171.491 450.65C177.971 479.802 201.488 499.118 229.639 507.399C213.253 496.521 200.858 480.42 196.43 459.481Z" fill="#FF7441"/>
<path d="M243.751 348.824C246.189 331.399 253.316 312.2 264.535 296.149C263.313 291.617 262.352 286.496 261.883 280.801C261.603 277.404 257.569 275.809 255.046 278.101C240.02 291.742 229.235 308.58 223.108 327.529L223.092 327.525C222.128 330.502 220.765 335.434 219.939 339.327C219.946 339.325 219.953 339.325 219.96 339.322C218.268 347.266 217.327 355.51 217.204 363.997C230.696 365.681 241.857 362.34 243.751 348.824Z" fill="#FF7441"/>
</svg>
