<svg width="256" height="375" viewBox="0 0 256 375" fill="none" xmlns="http://www.w3.org/2000/svg">
<rect x="45" y="182" width="167" height="161" fill="#FFA8AF"/>
<rect x="60" y="195" width="136" height="161" fill="#FFA8AF"/>
<rect x="60" y="201" width="132" height="161" fill="#FFA8AF"/>
<path d="M125.705 373.985C79.814 374.459 58.7804 363.526 54 358H202C195.69 363.131 171.597 373.511 125.705 373.985Z" fill="#FFA8AF" stroke="#FFA8AF"/>
<path d="M60.7582 363.339C64.5029 365.636 68.8854 361.509 66.715 357.679C61.0139 347.553 57.7798 335.895 57.7798 323.428C57.7798 297.048 72.3744 275.944 93.8614 261.903C112.88 249.478 107.69 233.438 110.838 214.333C112.71 203.015 119.773 192.718 125.687 185.868C128.07 183.102 132.538 184.422 133.133 187.996C136.622 209.44 164.449 245.947 180.49 269.774C198.956 297.26 197.765 321.471 197.637 323.3C197.637 323.385 197.637 323.47 197.637 323.556C197.595 335.938 194.361 347.553 188.702 357.595C186.532 361.424 190.914 365.594 194.659 363.254C224.187 345 245.462 314.876 252.568 280.879C258.227 253.818 255.036 225.864 245.888 199.994C240.484 184.719 233.038 170.21 223.975 156.765C194.659 113.153 143.643 46.3083 137.516 7.2065C136.367 0.0157862 127.262 -2.53713 122.539 2.99419C122.454 3.07929 113.774 12.6527 108.328 23.2473C103.691 32.3102 99.9033 41.7985 97.7338 51.7124C93.6491 70.3912 94.3724 90.3891 99.0528 108.898C100.585 114.94 102.542 120.854 104.925 126.598C107.222 132.129 109.69 137.703 110.115 143.745C110.797 155.02 100.585 164.764 89.5223 164.764C79.6085 164.764 71.3962 158.807 69.2687 147.574C68.7156 144.681 65.4823 143.15 62.9294 144.639C25.2739 166.807 0 207.781 0 254.627C0.0838208 300.58 24.3365 340.873 60.7582 363.339Z" fill="#FF4757"/>
<mask id="mask0" mask-type="alpha" maskUnits="userSpaceOnUse" x="0" y="0" width="256" height="375">
<rect x="45" y="182" width="167" height="161" fill="#FFA8AF"/>
<rect x="60" y="195" width="136" height="161" fill="#FFA8AF"/>
<rect x="60" y="201" width="132" height="161" fill="#FFA8AF"/>
<path d="M125.705 373.985C79.814 374.459 58.7804 363.526 54 358H202C195.69 363.131 171.597 373.511 125.705 373.985Z" fill="#FFA8AF" stroke="#FFA8AF"/>
<path d="M60.7582 363.339C64.5029 365.636 68.8854 361.509 66.715 357.679C61.0139 347.553 57.7798 335.895 57.7798 323.428C57.7798 297.048 72.3744 275.944 93.8614 261.903C112.88 249.478 107.69 233.438 110.838 214.333C112.71 203.015 119.773 192.718 125.687 185.868C128.07 183.102 132.538 184.422 133.133 187.996C136.622 209.44 164.449 245.947 180.49 269.774C198.956 297.26 197.765 321.471 197.637 323.3C197.637 323.385 197.637 323.47 197.637 323.556C197.595 335.938 194.361 347.553 188.702 357.595C186.532 361.424 190.914 365.594 194.659 363.254C224.187 345 245.462 314.876 252.568 280.879C258.227 253.818 255.036 225.864 245.888 199.994C240.484 184.719 233.038 170.21 223.975 156.765C194.659 113.153 143.643 46.3083 137.516 7.2065C136.367 0.0157862 127.262 -2.53713 122.539 2.99419C122.454 3.07929 113.774 12.6527 108.328 23.2473C103.691 32.3102 99.9033 41.7985 97.7338 51.7124C93.6491 70.3912 94.3724 90.3891 99.0528 108.898C100.585 114.94 102.542 120.854 104.925 126.598C107.222 132.129 109.69 137.703 110.115 143.745C110.797 155.02 100.585 164.764 89.5223 164.764C79.6085 164.764 71.3962 158.807 69.2687 147.574C68.7156 144.681 65.4823 143.15 62.9294 144.639C25.2739 166.807 0 207.781 0 254.627C0.0838208 300.58 24.3365 340.873 60.7582 363.339Z" fill="#FF4757"/>
</mask>
<g mask="url(#mask0)">
<path d="M97.0002 319.5C76.2002 342.3 94.0002 364.667 105.5 373L117.5 374C116 374.667 118.8 373.5 142 363.5C171 351 165 331 167.5 326C170 321 139.5 257 136.5 278C133.5 299 123 291 97.0002 319.5Z" fill="#FFC0C5" stroke="#FFC0C5" stroke-width="5"/>
</g>
</svg>
